<!-- Generated by IcoMoon.io -->
<svg version="1.1" xmlns="http://www.w3.org/2000/svg" width="32" height="32" viewBox="0 0 32 32">
<title>gift</title>
<path d="M14.921 15.64l-0.001 12.945h-7.551c-1.589 0-2.877-1.288-2.877-2.877v0-10.069h10.428zM27.507 15.64v10.069c0 1.589-1.288 2.877-2.877 2.877h-7.551v-12.945h10.428zM20.315 3.414c0 0 0 0 0.001 0 2.383 0 4.315 1.932 4.315 4.315 0 0.254-0.022 0.503-0.064 0.745l0.004-0.026h4.015c0.596 0 1.079 0.483 1.079 1.079s-0.483 1.079-1.079 1.079v0h-1.079v2.877h-10.428v-2.877h-2.158v2.877h-10.428v-2.877h-1.079c-0.596 0-1.079-0.483-1.079-1.079s0.483-1.079 1.079-1.079v0h4.015c-0.038-0.216-0.061-0.466-0.061-0.72 0-2.327 1.841-4.223 4.146-4.312l0.008-0 0.162-0.001c0 0 0 0 0 0 2.326 0 4.223 1.841 4.312 4.145l0 0.008 0.003 0.161c0 0.245-0.020 0.485-0.060 0.719h0.119c-0.038-0.216-0.060-0.466-0.060-0.72 0-2.327 1.841-4.223 4.146-4.312l0.008-0 0.162-0.001zM11.685 5.572c-0 0-0 0-0.001 0-1.192 0-2.158 0.966-2.158 2.158 0 0.223 0.034 0.438 0.097 0.641l-0.004-0.015 0.031 0.094h4.071l0.030-0.084c0.045-0.146 0.074-0.295 0.086-0.445l0.006-0.15-0.002-0.122c-0.046-1.155-0.993-2.075-2.156-2.075-0 0-0 0-0 0v0zM20.315 5.572c-0 0-0 0-0.001 0-1.192 0-2.158 0.966-2.158 2.158 0 0.223 0.034 0.438 0.097 0.641l-0.004-0.015 0.031 0.094h4.068l0.032-0.094c0.045-0.15 0.075-0.305 0.086-0.465l0.006-0.161c0-1.192-0.966-2.158-2.158-2.158v0z"></path>
</svg>
