<!-- Generated by IcoMoon.io -->
<svg version="1.1" xmlns="http://www.w3.org/2000/svg" width="32" height="32" viewBox="0 0 32 32">
<title>gift-o</title>
<path d="M20.603 2.575c0 0 0 0 0.001 0 2.542 0 4.603 2.061 4.603 4.603 0 0.271-0.023 0.537-0.068 0.795l0.004-0.027h4.283c0.636 0 1.151 0.515 1.151 1.151s-0.515 1.151-1.151 1.151v0h-1.151v16.11c0 1.695-1.374 3.069-3.069 3.069h-18.411c-1.695 0-3.069-1.374-3.069-3.069v0-16.11h-1.151c-0.635 0-1.151-0.515-1.151-1.151s0.515-1.151 1.151-1.151v0h4.283c-0.041-0.231-0.065-0.497-0.065-0.768 0-2.482 1.964-4.505 4.422-4.599l0.009-0 0.173-0.002c0 0 0 0 0 0 2.481 0 4.504 1.964 4.599 4.422l0 0.009 0.003 0.172c0-0 0-0 0-0 0-2.481 1.963-4.504 4.422-4.599l0.009-0 0.173-0.003zM6.027 26.356c0 0.392 0.294 0.715 0.674 0.761l0.004 0 0.090 0.005h8.055v-11.507h-8.822v10.74zM25.973 15.616h-8.822v11.507h8.055c0.392-0 0.715-0.294 0.761-0.674l0-0.004 0.005-0.090v-10.74zM25.973 13.315v-3.069h-8.822v3.069h8.822zM6.027 13.315h8.822v-3.069h-8.822v3.069zM11.397 4.877c-0 0-0 0-0.001 0-1.271 0-2.301 1.030-2.301 2.301 0 0.238 0.036 0.468 0.103 0.684l-0.004-0.016 0.033 0.1h4.342l0.032-0.090c0.048-0.156 0.079-0.315 0.092-0.475l0.006-0.16-0.002-0.13c-0.049-1.232-1.060-2.213-2.3-2.213-0 0-0 0-0 0v0zM20.603 4.877c-0 0-0 0-0.001 0-1.271 0-2.301 1.030-2.301 2.301 0 0.238 0.036 0.468 0.103 0.684l-0.004-0.016 0.033 0.1h4.34l0.034-0.1c0.048-0.16 0.080-0.325 0.092-0.496l0.006-0.172c0-1.271-1.030-2.301-2.301-2.301v0z"></path>
</svg>
