<!-- Generated by IcoMoon.io -->
<svg version="1.1" xmlns="http://www.w3.org/2000/svg" width="32" height="32" viewBox="0 0 32 32">
<title>home</title>
<path d="M3.129 11.175l10.984-7.754c0.525-0.375 1.18-0.599 1.888-0.599s1.362 0.224 1.898 0.606l-0.010-0.007 10.984 7.754c0.632 0.45 1.039 1.18 1.039 2.005v14.276c0 0 0 0 0 0 0 1.356-1.099 2.455-2.455 2.455h-22.912c0 0-0 0-0 0-1.356 0-2.455-1.099-2.455-2.455 0 0 0-0 0-0v0-14.276c0-0.825 0.407-1.555 1.032-2l0.007-0.005zM11.090 16c0 0-0 0-0 0-0.452 0-0.818 0.366-0.818 0.818v0.818c0 0.452 0.366 0.818 0.818 0.818h9.819c0.452 0 0.818-0.366 0.818-0.818v0-0.818c0-0.452-0.366-0.818-0.818-0.818h-9.819z"></path>
</svg>
