<!-- Generated by IcoMoon.io -->
<svg version="1.1" xmlns="http://www.w3.org/2000/svg" width="32" height="32" viewBox="0 0 32 32">
<title>me</title>
<path d="M9.822 17.637c-1.74-1.641-2.823-3.962-2.823-6.536 0-0.004 0-0.008 0-0.011v0.001c0-4.971 4.030-9.001 9.001-9.001s9.001 4.030 9.001 9.001c0 0.003 0 0.007 0 0.011 0 2.574-1.083 4.895-2.819 6.531l-0.004 0.004h1.596c3.389 0 6.137 2.748 6.137 6.137v2.864c0 1.808-1.465 3.273-3.273 3.273h-21.275c-1.808-0-3.273-1.465-3.273-3.273v0-2.864c0 0 0-0 0-0 0-3.389 2.748-6.137 6.137-6.137h1.596zM16 13.545c1.356 0 2.455-1.099 2.455-2.455s-1.099-2.455-2.455-2.455v0c-1.356 0-2.455 1.099-2.455 2.455s1.099 2.455 2.455 2.455v0z"></path>
</svg>
