<!-- Generated by IcoMoon.io -->
<svg version="1.1" xmlns="http://www.w3.org/2000/svg" width="32" height="32" viewBox="0 0 32 32">
<title>message</title>
<path d="M26.099 3.984c2.088 0.002 3.781 1.695 3.783 3.783v13.101c-0.002 2.088-1.695 3.781-3.783 3.783h-11.089l-5.604 4.636c-0.205 0.169-0.47 0.272-0.759 0.272-0.001 0-0.001 0-0.002 0h0c-0 0-0.001 0-0.001 0-0.661 0-1.196-0.536-1.196-1.196 0-0.052 0.003-0.103 0.010-0.153l-0.001 0.006 0.454-3.548h-1.992c-0.004 0-0.008 0-0.012 0-2.091 0-3.787-1.695-3.787-3.787 0-0.004 0-0.008 0-0.012v0.001-13.101c0.002-2.088 1.695-3.781 3.783-3.783h20.199zM15.835 15.149h-7.821c-0.66 0-1.196 0.535-1.196 1.196s0.535 1.196 1.196 1.196h7.821c0.66 0 1.196-0.535 1.196-1.196s-0.535-1.196-1.196-1.196v0zM20.663 10.465h-12.649c-0.66 0-1.196 0.535-1.196 1.196s0.535 1.196 1.196 1.196v0h12.648c0.66 0 1.196-0.535 1.196-1.196s-0.535-1.196-1.196-1.196v0z"></path>
</svg>
