<!-- Generated by IcoMoon.io -->
<svg version="1.1" xmlns="http://www.w3.org/2000/svg" width="32" height="32" viewBox="0 0 32 32">
<title>message-o</title>
<path d="M8.644 29.557c-0 0-0.001 0-0.001 0-0.661 0-1.196-0.536-1.196-1.196 0-0.052 0.003-0.103 0.010-0.153l-0.001 0.006 0.454-3.548h-1.992c-0.004 0-0.008 0-0.012 0-2.091 0-3.787-1.695-3.787-3.787 0-0.004 0-0.008 0-0.012v0.001-13.101c0.002-2.088 1.695-3.781 3.783-3.783h20.199c2.088 0.002 3.781 1.695 3.783 3.783v13.101c-0.002 2.088-1.695 3.781-3.783 3.783h-11.089l-5.604 4.636c-0.205 0.169-0.47 0.272-0.759 0.272-0.001 0-0.001 0-0.002 0h0zM5.901 6.375c-0.767 0.002-1.389 0.624-1.391 1.391v13.101c0.002 0.767 0.624 1.389 1.391 1.391h3.368c0.003-0 0.007-0 0.010-0 0.66 0 1.195 0.535 1.195 1.195 0 0.053-0.004 0.106-0.010 0.157l0.001-0.006-0.243 1.902 3.587-2.974c0.214-0.178 0.483-0.275 0.761-0.275h11.521c0.002 0 0.005 0 0.008 0 0.768 0 1.391-0.623 1.391-1.391 0 0 0-0 0-0v0-13.101c0-0.768-0.623-1.391-1.391-1.391v0h-20.2zM8.014 12.856c-0.66 0-1.196-0.535-1.196-1.196s0.535-1.196 1.196-1.196h12.648c0.66 0 1.196 0.535 1.196 1.196s-0.535 1.196-1.196 1.196h-12.648zM15.835 17.54h-7.821c-0.66 0-1.196-0.535-1.196-1.196s0.535-1.196 1.196-1.196v0h7.821c0.66 0 1.196 0.535 1.196 1.196s-0.535 1.196-1.196 1.196v0z"></path>
</svg>
