<!-- Generated by IcoMoon.io -->
<svg version="1.1" xmlns="http://www.w3.org/2000/svg" width="32" height="32" viewBox="0 0 32 32">
<title>my-o</title>
<path d="M16 2.192c4.66 0 8.438 3.778 8.438 8.438 0 2.835-1.397 5.342-3.54 6.873l5.529 0.829c1.488 0.229 2.614 1.5 2.614 3.035 0 0 0 0 0 0v0 7.292c0 0.636-0.515 1.151-1.151 1.151h-23.781c-0.635 0-1.151-0.515-1.151-1.151v0-7.292c0-0 0-0 0-0 0-1.534 1.126-2.805 2.596-3.032l0.017-0.002 5.529-0.829c-2.154-1.547-3.54-4.044-3.54-6.866 0-0.002 0-0.005 0-0.007v0c0-4.66 3.778-8.438 8.438-8.438zM17.671 19.345l0.631 4.821-2.301 2.301-2.301-2.301 0.631-4.821-8.415 1.263c-0.343 0.053-0.609 0.326-0.649 0.668l-0 0.004-0.005 0.087v6.141h21.48v-6.141c0-0 0-0 0-0 0-0.353-0.238-0.65-0.563-0.74l-0.005-0.001-0.084-0.018-8.416-1.263zM16 4.493c-0 0-0 0-0.001 0-3.389 0-6.137 2.748-6.137 6.137s2.748 6.137 6.137 6.137c0 0 0 0 0.001 0h-0c3.389-0 6.137-2.748 6.137-6.137s-2.747-6.137-6.137-6.137h-0z"></path>
</svg>
