<!-- Generated by IcoMoon.io -->
<svg version="1.1" xmlns="http://www.w3.org/2000/svg" width="32" height="32" viewBox="0 0 32 32">
<title>my</title>
<path d="M22.926 17.806l3.502 0.526c1.488 0.229 2.614 1.5 2.614 3.035 0 0 0 0 0 0v0 7.292c0 0.636-0.515 1.151-1.151 1.151h-23.781c-0.635 0-1.151-0.515-1.151-1.151v0-7.292c0-0 0-0 0-0 0-1.534 1.126-2.805 2.596-3.032l0.017-0.002 3.502-0.526c1.381 1.333 3.145 2.271 5.112 2.633l-0.488 3.727 2.301 2.301 2.301-2.301-0.487-3.727c2.005-0.379 3.749-1.313 5.114-2.635l-0.003 0.003zM16 2.192c4.66 0 8.438 3.778 8.438 8.438s-3.778 8.438-8.438 8.438-8.438-3.778-8.438-8.438 3.778-8.438 8.438-8.438z"></path>
</svg>
