<!-- Generated by IcoMoon.io -->
<svg version="1.1" xmlns="http://www.w3.org/2000/svg" width="32" height="32" viewBox="0 0 32 32">
<title>post-o</title>
<path d="M24.438 2.192c1.695 0 3.069 1.374 3.069 3.069v0 21.48c0 1.695-1.374 3.069-3.069 3.069h-16.877c-1.695 0-3.069-1.374-3.069-3.069v0-21.48c0-1.695 1.374-3.069 3.069-3.069h16.877zM11.397 4.493h-3.836c-0.424 0-0.767 0.343-0.767 0.767v21.48c0 0.424 0.343 0.767 0.767 0.767v0h16.877c0.424 0 0.767-0.343 0.767-0.767v0-21.48c0-0.424-0.343-0.767-0.767-0.767v0h-3.836v0.767c0 1.695-1.374 3.069-3.069 3.069h-3.069c-1.695 0-3.069-1.374-3.069-3.069v0-0.767zM17.151 22.137c0.636 0 1.151 0.515 1.151 1.151s-0.515 1.151-1.151 1.151v0h-6.904c-0.636 0-1.151-0.515-1.151-1.151s0.515-1.151 1.151-1.151v0h6.904zM21.753 16.767c0.636 0 1.151 0.515 1.151 1.151s-0.515 1.151-1.151 1.151h-11.507c-0.636 0-1.151-0.515-1.151-1.151s0.515-1.151 1.151-1.151h11.507zM21.753 11.397c0.636 0 1.151 0.515 1.151 1.151s-0.515 1.151-1.151 1.151h-11.507c-0.636 0-1.151-0.515-1.151-1.151s0.515-1.151 1.151-1.151h11.507zM18.301 4.493h-4.603v0.767c0 0.424 0.343 0.767 0.767 0.767h3.069c0.424 0 0.767-0.343 0.767-0.767v0-0.767z"></path>
</svg>
