<!-- Generated by IcoMoon.io -->
<svg version="1.1" xmlns="http://www.w3.org/2000/svg" width="32" height="32" viewBox="0 0 32 32">
<title>post</title>
<path d="M24.438 2.192c1.695 0 3.069 1.374 3.069 3.069v0 21.48c0 1.695-1.374 3.069-3.069 3.069h-16.877c-1.695 0-3.069-1.374-3.069-3.069v0-21.48c0-1.695 1.374-3.069 3.069-3.069h16.877zM17.151 22.137h-6.904c-0.635 0-1.15 0.515-1.15 1.151 0 0.596 0.454 1.087 1.035 1.145l0.005 0 0.11 0.005h6.904c0.636 0 1.151-0.515 1.151-1.151s-0.515-1.151-1.151-1.151v0zM21.753 16.767h-11.507c-0.635 0-1.15 0.515-1.15 1.151 0 0.596 0.454 1.087 1.035 1.145l0.005 0 0.11 0.005h11.507c0.636 0 1.151-0.515 1.151-1.151s-0.515-1.151-1.151-1.151v0zM21.753 11.397h-11.507c-0.635 0-1.15 0.515-1.15 1.151 0 0.596 0.454 1.087 1.035 1.145l0.005 0 0.11 0.005h11.507c0.636 0 1.151-0.515 1.151-1.151s-0.515-1.151-1.151-1.151v0zM19.836 3.726h-7.671v1.534c0 0 0 0 0 0 0 1.224 0.955 2.224 2.16 2.297l0.006 0 0.135 0.004h3.069c0 0 0 0 0 0 1.224 0 2.224-0.955 2.297-2.16l0-0.006 0.004-0.135v-1.534z"></path>
</svg>
